<?xml version="1.0" encoding="UTF-8" standalone="no"?>
<svg
   viewBox="0 0 270.51 67.31"
   version="1.1"
   id="svg191"
   sodipodi:docname="lapaz.svg"
   inkscape:version="1.2.2 (b0a8486541, 2022-12-01)"
   xmlns:inkscape="http://www.inkscape.org/namespaces/inkscape"
   xmlns:sodipodi="http://sodipodi.sourceforge.net/DTD/sodipodi-0.dtd"
   xmlns="http://www.w3.org/2000/svg"
   xmlns:svg="http://www.w3.org/2000/svg">
  <sodipodi:namedview
     id="namedview193"
     pagecolor="#505050"
     bordercolor="#eeeeee"
     borderopacity="1"
     inkscape:showpageshadow="0"
     inkscape:pageopacity="0"
     inkscape:pagecheckerboard="0"
     inkscape:deskcolor="#505050"
     showgrid="false"
     inkscape:zoom="5.3972125"
     inkscape:cx="98.29148"
     inkscape:cy="33.62847"
     inkscape:window-width="1600"
     inkscape:window-height="1251"
     inkscape:window-x="280"
     inkscape:window-y="370"
     inkscape:window-maximized="0"
     inkscape:current-layer="svg191" />
  <defs
     id="defs137">
    <style
       id="style135">.cls-1{fill:#fff;}</style>
  </defs>
  <g
     id="Layer_2"
     data-name="Layer 2"
     style="fill:#242f44;fill-opacity:1">
    <g
       id="Layer_1-2"
       data-name="Layer 1"
       style="fill:#242f44;fill-opacity:1">
      <g
         id="Layer_2-2"
         data-name="Layer 2"
         style="fill:#242f44;fill-opacity:1">
        <g
           id="Layer_1-2-2"
           data-name="Layer 1-2"
           style="fill:#242f44;fill-opacity:1">
          <path
             class="cls-1"
             d="M22.69,59.45c1.53,0,2.39.8,2.39,2a1.79,1.79,0,0,1-1,1.66,1.81,1.81,0,0,1,1.43,1.77c0,1.23-.88,2.2-2.8,2.2H16.54V59.45ZM18,60.7v1.86h4.77a.89.89,0,0,0,1-.79.38.38,0,0,0,0-.1c0-.65-.49-1-1.19-1Zm0,3.06v2h4.5c.84,0,1.38-.33,1.38-1a1,1,0,0,0-1.16-1Z"
             id="path139"
             style="fill:#242f44;fill-opacity:1" />
          <path
             class="cls-1"
             d="M40,67.06H38.4l-.9-1.73H32.8l-.88,1.73H30.4l3.88-7.61h1.79Zm-6.7-2.89H37l-1.81-3.49Z"
             id="path141"
             style="fill:#242f44;fill-opacity:1" />
          <path
             class="cls-1"
             d="M52.05,63.7a3.31,3.31,0,0,1-3,3.6,2.57,2.57,0,0,1-.48,0c-2,0-3.27-1-3.62-2.42l1.39-.49a2,2,0,0,0,2,1.64c1.26,0,2.25-.52,2.25-2.34V59.45H52Z"
             id="path143"
             style="fill:#242f44;fill-opacity:1" />
          <path
             class="cls-1"
             d="M66.85,67.06H65.21l-.9-1.73h-4.7l-.88,1.73H57.21l3.88-7.61h1.79Zm-6.7-2.89h3.64L62,60.68Z"
             id="path145"
             style="fill:#242f44;fill-opacity:1" />
          <path
             class="cls-1"
             d="M87.41,62.09a3,3,0,0,0-2.88-1.63c-1.88,0-3.2,1.06-3.2,2.79s1.23,2.81,3.19,2.81a2.84,2.84,0,0,0,2.85-1.55l1.22.56c-.61,1.43-2,2.24-4.17,2.24-2.55,0-4.55-1.48-4.55-4.06s2.14-4,4.66-4a4.42,4.42,0,0,1,4.11,2.25Z"
             id="path147"
             style="fill:#242f44;fill-opacity:1" />
          <path
             class="cls-1"
             d="M103.36,67.06h-1.63l-.9-1.73h-4.7l-.88,1.73H93.73l3.87-7.61h1.8Zm-6.69-2.89h3.64l-1.82-3.49Z"
             id="path149"
             style="fill:#242f44;fill-opacity:1" />
          <path
             class="cls-1"
             d="M110.39,65.65h6v1.41H109V59.45h1.4Z"
             id="path151"
             style="fill:#242f44;fill-opacity:1" />
          <path
             class="cls-1"
             d="M123.47,67.06h-1.41V59.45h1.41Z"
             id="path153"
             style="fill:#242f44;fill-opacity:1" />
          <path
             class="cls-1"
             d="M137.49,60.64h-6.07V62.8h5.49V64h-5.49v3H130V59.45h7.48Z"
             id="path155"
             style="fill:#242f44;fill-opacity:1" />
          <path
             class="cls-1"
             d="M147.68,67.31c-2.67,0-4.89-1.48-4.89-4.06s2.22-4,4.89-4,4.89,1.48,4.89,4S150.35,67.31,147.68,67.31Zm0-6.85c-2.08,0-3.42,1.06-3.42,2.79s1.34,2.81,3.42,2.81,3.41-1.06,3.41-2.81S149.75,60.46,147.68,60.46Z"
             id="path157"
             style="fill:#242f44;fill-opacity:1" />
          <path
             class="cls-1"
             d="M167.46,67.06h-2l-2.38-2.89h-3v2.89h-1.41V59.45h5.93c1.89,0,2.82.92,2.82,2.37s-1,2.21-2.58,2.33Zm-7.32-6.34v2.15h4.34c1,0,1.52-.37,1.52-1.09s-.48-1.06-1.35-1.06Z"
             id="path159"
             style="fill:#242f44;fill-opacity:1" />
          <path
             class="cls-1"
             d="M182.47,67.06H181l-6-5.8v5.8h-1.5V59.45H175l6,5.67V59.45h1.49Z"
             id="path161"
             style="fill:#242f44;fill-opacity:1" />
          <path
             class="cls-1"
             d="M190.41,67.06H189V59.45h1.41Z"
             id="path163"
             style="fill:#242f44;fill-opacity:1" />
          <path
             class="cls-1"
             d="M205.86,67.06h-1.63l-.91-1.73h-4.7l-.88,1.73h-1.52l3.88-7.61h1.79Zm-6.69-2.89h3.64L201,60.68Z"
             id="path165"
             style="fill:#242f44;fill-opacity:1" />
          <path
             class="cls-1"
             d="M225.77,61.56c-.31-.86-1.09-1.2-2.52-1.2-1.9,0-2.72.41-2.72,1.16,0,1,1,1,2.75,1,2.42,0,4.11.2,4.11,2.18,0,1.5-1.22,2.56-4.23,2.56a6.75,6.75,0,0,1-2.78-.38,2.36,2.36,0,0,1-1.53-2.15h1.54c.13.93,1.25,1.36,2.88,1.36s2.65-.46,2.65-1.36-1.12-1-2.41-1h-.85c-1.36,0-3.63,0-3.63-2.28,0-1.42,1.11-2.33,4.21-2.33,2.61,0,3.63.77,3.94,2.31Z"
             id="path167"
             style="fill:#242f44;fill-opacity:1" />
          <path
             class="cls-1"
             d="M242,63.57c0,2.64-1.87,3.74-4.36,3.74s-4.17-1.13-4.17-3.72V59.45h1.46v3.92c0,2,1.1,2.66,2.73,2.66s3-.6,3-2.65V59.45H242Z"
             id="path169"
             style="fill:#242f44;fill-opacity:1" />
          <path
             class="cls-1"
             d="M257,67.06h-2l-2.38-2.89h-3v2.89h-1.41V59.45h5.93c1.88,0,2.81.92,2.81,2.37s-1,2.21-2.58,2.33Zm-7.31-6.34v2.15H254c1,0,1.52-.37,1.52-1.09s-.49-1.06-1.36-1.06Z"
             id="path171"
             style="fill:#242f44;fill-opacity:1" />
          <polygon
             class="cls-1"
             points="45.95 41.17 50.8 41.17 55.62 32.76 50.85 32.76 45.95 41.17"
             id="polygon173"
             style="fill:#242f44;fill-opacity:1" />
          <polygon
             class="cls-1"
             points="8.88 38.66 8.88 0.01 0 0.01 0 41.17 0.19 41.17 8.88 41.17 31.69 41.17 33.78 38.66 8.88 38.66"
             id="polygon175"
             style="fill:#242f44;fill-opacity:1" />
          <polygon
             class="cls-1"
             points="270.5 0.01 266.73 0.01 261.25 0.01 236.31 0 233.91 2.8 259.67 2.8 232.7 41.17 234.83 41.17 240.47 41.17 270.51 41.17 268.11 38.38 243.56 38.38 270.5 0.01"
             id="polygon177"
             style="fill:#242f44;fill-opacity:1" />
          <polygon
             class="cls-1"
             points="174.74 41.17 179.59 41.17 184.41 32.76 179.64 32.76 174.74 41.17"
             id="polygon179"
             style="fill:#242f44;fill-opacity:1" />
          <path
             class="cls-1"
             d="M154.16,0H130.48V41.17h8.87V29.11l-3.88-4.59h18.69c9-.16,16.31-5.57,16.31-12.25S163.2.17,154.16,0Zm-3.74,22.1H139.35V2.23h11.07c6.6,0,12,4.44,12,9.93S157,22.1,150.42,22.1Z"
             id="path181"
             style="fill:#242f44;fill-opacity:1" />
          <path
             class="cls-1"
             d="M72.16,0H64.37l2.74,4.82L54.82,25.93H46l-2.18,2.8H80.7l7.06,12.44h7.77ZM59.53,25.93,69.37,8.8l4.28,7.52h0l5.46,9.61Z"
             id="path183"
             style="fill:#242f44;fill-opacity:1" />
          <path
             class="cls-1"
             d="M201,0h-7.8l2.74,4.83-12.28,21.1h-8.78l-2.18,2.8h36.84l7.07,12.44h7.76ZM188.33,25.93l9.83-17.12,4.27,7.51h0l5.46,9.62Z"
             id="path185"
             style="fill:#242f44;fill-opacity:1" />
        </g>
      </g>
    </g>
  </g>
</svg>
